<svg width="1061" height="125" xmlns="http://www.w3.org/2000/svg" xmlns:xlink="http://www.w3.org/1999/xlink" xml:space="preserve" overflow="hidden"><g transform="translate(-1707 -1123)"><path d="M1827.09 1123.2 1827.09 1244.72" stroke="#2A2A2A" stroke-width="4.58333" stroke-linejoin="round" stroke-miterlimit="10" fill="none" fill-rule="evenodd"/><path d="M1944.01 1123.2 1944.01 1244.72" stroke="#2A2A2A" stroke-width="4.58333" stroke-linejoin="round" stroke-miterlimit="10" fill="none" fill-rule="evenodd"/><path d="M2060.94 1123.2 2060.94 1244.72" stroke="#2A2A2A" stroke-width="4.58333" stroke-linejoin="round" stroke-miterlimit="10" fill="none" fill-rule="evenodd"/><path d="M2177.87 1123.2 2177.87 1244.72" stroke="#2A2A2A" stroke-width="4.58333" stroke-linejoin="round" stroke-miterlimit="10" fill="none" fill-rule="evenodd"/><path d="M2294.8 1123.2 2294.8 1244.72" stroke="#2A2A2A" stroke-width="4.58333" stroke-linejoin="round" stroke-miterlimit="10" fill="none" fill-rule="evenodd"/><path d="M2411.73 1123.2 2411.73 1244.72" stroke="#2A2A2A" stroke-width="4.58333" stroke-linejoin="round" stroke-miterlimit="10" fill="none" fill-rule="evenodd"/><path d="M2528.66 1123.2 2528.66 1244.72" stroke="#2A2A2A" stroke-width="4.58333" stroke-linejoin="round" stroke-miterlimit="10" fill="none" fill-rule="evenodd"/><path d="M2645.59 1123.2 2645.59 1244.72" stroke="#2A2A2A" stroke-width="4.58333" stroke-linejoin="round" stroke-miterlimit="10" fill="none" fill-rule="evenodd"/><path d="M1710.16 1123.2 1710.16 1244.72" stroke="#2A2A2A" stroke-width="4.58333" stroke-linejoin="round" stroke-miterlimit="10" fill="none" fill-rule="evenodd"/><path d="M2762.52 1123.2 2762.52 1244.72" stroke="#2A2A2A" stroke-width="4.58333" stroke-linejoin="round" stroke-miterlimit="10" fill="none" fill-rule="evenodd"/><path d="M1707.86 1125.49 2764.81 1125.49" stroke="#2A2A2A" stroke-width="4.58333" stroke-linejoin="round" stroke-miterlimit="10" fill="none" fill-rule="evenodd"/><path d="M1707.86 1242.42 2764.81 1242.42" stroke="#2A2A2A" stroke-width="4.58333" stroke-linejoin="round" stroke-miterlimit="10" fill="none" fill-rule="evenodd"/><g><text fill="#2A2A2A" font-family="Arial,Arial_MSFontService,sans-serif" font-weight="400" font-size="41" transform="matrix(1 0 0 1 2669.68 1199)">209</text></g><g><text fill="#2A2A2A" font-family="Arial,Arial_MSFontService,sans-serif" font-weight="400" font-size="41" transform="matrix(1 0 0 1 2552.75 1199)">177</text></g><g><text fill="#2A2A2A" font-family="Arial,Arial_MSFontService,sans-serif" font-weight="400" font-size="41" transform="matrix(1 0 0 1 2435.82 1199)">153</text></g><g><text fill="#2A2A2A" font-family="Arial,Arial_MSFontService,sans-serif" font-weight="400" font-size="41" transform="matrix(1 0 0 1 2318.89 1199)">149</text></g><text fill="#2A2A2A" font-family="Arial,Arial_MSFontService,sans-serif" font-weight="400" font-size="41" transform="matrix(1 0 0 1 2213.42 1199)">81</text><g><text fill="#2A2A2A" font-family="Arial,Arial_MSFontService,sans-serif" font-weight="400" font-size="41" transform="matrix(1 0 0 1 2085.03 1199)">113</text></g><g><text fill="#2A2A2A" font-family="Arial,Arial_MSFontService,sans-serif" font-weight="400" font-size="41" transform="matrix(1 0 0 1 1968.1 1199)">137</text></g><g><text fill="#2A2A2A" font-family="Arial,Arial_MSFontService,sans-serif" font-weight="400" font-size="41" transform="matrix(1 0 0 1 1851.18 1199)">141</text></g><g><text fill="#2A2A2A" font-family="Arial,Arial_MSFontService,sans-serif" font-weight="400" font-size="41" transform="matrix(1 0 0 1 1734.25 1199)">145</text></g></g></svg>