<svg width="865" height="865" xmlns="http://www.w3.org/2000/svg" xmlns:xlink="http://www.w3.org/1999/xlink" xml:space="preserve" overflow="hidden"><g transform="translate(-2061 -120)"><path d="M2492.1 229.789 2599.28 229.789 2599.28 336.974 2492.1 336.974Z" fill="#DCF1ED" fill-rule="evenodd"/><path d="M2492.1 336.974 2599.28 336.974 2599.28 444.159 2492.1 444.159Z" fill="#DCF1ED" fill-rule="evenodd"/><path d="M2277.73 444.159 2384.91 444.159 2384.91 551.344 2277.73 551.344Z" fill="#DCF1ED" fill-rule="evenodd"/><path d="M2384.91 444.159 2492.1 444.159 2492.1 551.344 2384.91 551.344Z" fill="#DCF1ED" fill-rule="evenodd"/><path d="M2492.1 444.159 2599.28 444.159 2599.28 551.344 2492.1 551.344Z" fill="#B9E3DB" fill-rule="evenodd"/><path d="M2599.28 444.159 2706.47 444.159 2706.47 551.344 2599.28 551.344Z" fill="#DCF1ED" fill-rule="evenodd"/><path d="M2706.47 444.159 2813.65 444.159 2813.65 551.344 2706.47 551.344Z" fill="#DCF1ED" fill-rule="evenodd"/><path d="M2492.1 551.344 2599.28 551.344 2599.28 658.529 2492.1 658.529Z" fill="#DCF1ED" fill-rule="evenodd"/><path d="M2492.1 658.529 2599.28 658.529 2599.28 765.714 2492.1 765.714Z" fill="#DCF1ED" fill-rule="evenodd"/><path d="M2170.54 120.312 2170.54 982.376" stroke="#2A2A2A" stroke-width="4.58333" stroke-linejoin="round" stroke-miterlimit="10" fill="none" fill-rule="evenodd"/><path d="M2277.73 120.312 2277.73 982.376" stroke="#2A2A2A" stroke-width="4.58333" stroke-linejoin="round" stroke-miterlimit="10" fill="none" fill-rule="evenodd"/><path d="M2384.91 120.312 2384.91 982.376" stroke="#2A2A2A" stroke-width="4.58333" stroke-linejoin="round" stroke-miterlimit="10" fill="none" fill-rule="evenodd"/><path d="M2492.1 120.312 2492.1 982.376" stroke="#2A2A2A" stroke-width="4.58333" stroke-linejoin="round" stroke-miterlimit="10" fill="none" fill-rule="evenodd"/><path d="M2599.28 120.312 2599.28 982.376" stroke="#2A2A2A" stroke-width="4.58333" stroke-linejoin="round" stroke-miterlimit="10" fill="none" fill-rule="evenodd"/><path d="M2706.47 120.312 2706.47 982.376" stroke="#2A2A2A" stroke-width="4.58333" stroke-linejoin="round" stroke-miterlimit="10" fill="none" fill-rule="evenodd"/><path d="M2813.65 120.312 2813.65 982.376" stroke="#2A2A2A" stroke-width="4.58333" stroke-linejoin="round" stroke-miterlimit="10" fill="none" fill-rule="evenodd"/><path d="M2061.07 229.789 2923.13 229.789" stroke="#2A2A2A" stroke-width="4.58333" stroke-linejoin="round" stroke-miterlimit="10" fill="none" fill-rule="evenodd"/><path d="M2061.07 336.974 2923.13 336.974" stroke="#2A2A2A" stroke-width="4.58333" stroke-linejoin="round" stroke-miterlimit="10" fill="none" fill-rule="evenodd"/><path d="M2061.07 444.159 2923.13 444.159" stroke="#2A2A2A" stroke-width="4.58333" stroke-linejoin="round" stroke-miterlimit="10" fill="none" fill-rule="evenodd"/><path d="M2061.07 551.344 2923.13 551.344" stroke="#2A2A2A" stroke-width="4.58333" stroke-linejoin="round" stroke-miterlimit="10" fill="none" fill-rule="evenodd"/><path d="M2061.07 658.529 2923.13 658.529" stroke="#2A2A2A" stroke-width="4.58333" stroke-linejoin="round" stroke-miterlimit="10" fill="none" fill-rule="evenodd"/><path d="M2061.07 765.714 2923.13 765.714" stroke="#2A2A2A" stroke-width="4.58333" stroke-linejoin="round" stroke-miterlimit="10" fill="none" fill-rule="evenodd"/><path d="M2061.07 872.899 2923.13 872.899" stroke="#2A2A2A" stroke-width="4.58333" stroke-linejoin="round" stroke-miterlimit="10" fill="none" fill-rule="evenodd"/><path d="M2063.36 120.312 2063.36 982.376" stroke="#2A2A2A" stroke-width="4.58333" stroke-linejoin="round" stroke-miterlimit="10" fill="none" fill-rule="evenodd"/><path d="M2920.84 120.312 2920.84 982.376" stroke="#2A2A2A" stroke-width="4.58333" stroke-linejoin="round" stroke-miterlimit="10" fill="none" fill-rule="evenodd"/><path d="M2061.07 122.604 2923.13 122.604" stroke="#2A2A2A" stroke-width="4.58333" stroke-linejoin="round" stroke-miterlimit="10" fill="none" fill-rule="evenodd"/><path d="M2061.07 980.084 2923.13 980.084" stroke="#2A2A2A" stroke-width="4.58333" stroke-linejoin="round" stroke-miterlimit="10" fill="none" fill-rule="evenodd"/><g><text fill="#2A2A2A" font-family="Arial,Arial_MSFontService,sans-serif" font-weight="400" font-size="41" transform="matrix(1 0 0 1 2832.87 191)">253</text></g><g><text fill="#2A2A2A" font-family="Arial,Arial_MSFontService,sans-serif" font-weight="400" font-size="41" transform="matrix(1 0 0 1 2725.69 191)">259</text></g><g><text fill="#2A2A2A" font-family="Arial,Arial_MSFontService,sans-serif" font-weight="400" font-size="41" transform="matrix(1 0 0 1 2618.5 191)">245</text></g><g><text fill="#2A2A2A" font-family="Arial,Arial_MSFontService,sans-serif" font-weight="400" font-size="41" transform="matrix(1 0 0 1 2511.32 191)">241</text></g><g><text fill="#2A2A2A" font-family="Arial,Arial_MSFontService,sans-serif" font-weight="400" font-size="41" transform="matrix(1 0 0 1 2404.13 191)">237</text></g><g><text fill="#2A2A2A" font-family="Arial,Arial_MSFontService,sans-serif" font-weight="400" font-size="41" transform="matrix(1 0 0 1 2296.95 191)">233</text></g><g><text fill="#2A2A2A" font-family="Arial,Arial_MSFontService,sans-serif" font-weight="400" font-size="41" transform="matrix(1 0 0 1 2189.76 191)">229</text></g><g><text fill="#2A2A2A" font-family="Arial,Arial_MSFontService,sans-serif" font-weight="400" font-size="41" transform="matrix(1 0 0 1 2082.58 191)">225</text></g><g><text fill="#2A2A2A" font-family="Arial,Arial_MSFontService,sans-serif" font-weight="400" font-size="41" transform="matrix(1 0 0 1 2832.87 299)">221</text></g><g><text fill="#2A2A2A" font-family="Arial,Arial_MSFontService,sans-serif" font-weight="400" font-size="41" transform="matrix(1 0 0 1 2725.69 299)">217</text></g><g><text fill="#2A2A2A" font-family="Arial,Arial_MSFontService,sans-serif" font-weight="400" font-size="41" transform="matrix(1 0 0 1 2618.5 299)">213</text></g><g><text fill="#2A2A2A" font-family="Arial,Arial_MSFontService,sans-serif" font-weight="400" font-size="41" transform="matrix(1 0 0 1 2511.32 299)">209</text></g><g><text fill="#2A2A2A" font-family="Arial,Arial_MSFontService,sans-serif" font-weight="400" font-size="41" transform="matrix(1 0 0 1 2404.13 299)">205</text></g><g><text fill="#2A2A2A" font-family="Arial,Arial_MSFontService,sans-serif" font-weight="400" font-size="41" transform="matrix(1 0 0 1 2296.95 299)">201</text></g><g><text fill="#2A2A2A" font-family="Arial,Arial_MSFontService,sans-serif" font-weight="400" font-size="41" transform="matrix(1 0 0 1 2189.76 299)">197</text></g><g><text fill="#2A2A2A" font-family="Arial,Arial_MSFontService,sans-serif" font-weight="400" font-size="41" transform="matrix(1 0 0 1 2082.58 299)">193</text></g><g><text fill="#2A2A2A" font-family="Arial,Arial_MSFontService,sans-serif" font-weight="400" font-size="41" transform="matrix(1 0 0 1 2832.87 406)">189</text></g><g><text fill="#2A2A2A" font-family="Arial,Arial_MSFontService,sans-serif" font-weight="400" font-size="41" transform="matrix(1 0 0 1 2725.69 406)">185</text></g><g><text fill="#2A2A2A" font-family="Arial,Arial_MSFontService,sans-serif" font-weight="400" font-size="41" transform="matrix(1 0 0 1 2618.5 406)">181</text></g><g><text fill="#2A2A2A" font-family="Arial,Arial_MSFontService,sans-serif" font-weight="400" font-size="41" transform="matrix(1 0 0 1 2511.32 406)">177</text></g><g><text fill="#2A2A2A" font-family="Arial,Arial_MSFontService,sans-serif" font-weight="400" font-size="41" transform="matrix(1 0 0 1 2404.13 406)">173</text></g><g><text fill="#2A2A2A" font-family="Arial,Arial_MSFontService,sans-serif" font-weight="400" font-size="41" transform="matrix(1 0 0 1 2296.95 406)">169</text></g><g><text fill="#2A2A2A" font-family="Arial,Arial_MSFontService,sans-serif" font-weight="400" font-size="41" transform="matrix(1 0 0 1 2189.76 406)">165</text></g><g><text fill="#2A2A2A" font-family="Arial,Arial_MSFontService,sans-serif" font-weight="400" font-size="41" transform="matrix(1 0 0 1 2082.58 406)">161</text></g><g><text fill="#2A2A2A" font-family="Arial,Arial_MSFontService,sans-serif" font-weight="400" font-size="41" transform="matrix(1 0 0 1 2832.87 513)">157</text></g><g><text fill="#2A2A2A" font-family="Arial,Arial_MSFontService,sans-serif" font-weight="400" font-size="41" transform="matrix(1 0 0 1 2725.69 513)">153</text></g><g><text fill="#2A2A2A" font-family="Arial,Arial_MSFontService,sans-serif" font-weight="400" font-size="41" transform="matrix(1 0 0 1 2618.5 513)">149</text></g><g><text fill="#2A2A2A" font-family="Arial,Arial_MSFontService,sans-serif" font-weight="400" font-size="41" transform="matrix(1 0 0 1 2511.32 513)">145</text></g><g><text fill="#2A2A2A" font-family="Arial,Arial_MSFontService,sans-serif" font-weight="400" font-size="41" transform="matrix(1 0 0 1 2404.13 513)">141</text></g><g><text fill="#2A2A2A" font-family="Arial,Arial_MSFontService,sans-serif" font-weight="400" font-size="41" transform="matrix(1 0 0 1 2296.95 513)">137</text></g><g><text fill="#2A2A2A" font-family="Arial,Arial_MSFontService,sans-serif" font-weight="400" font-size="41" transform="matrix(1 0 0 1 2189.76 513)">133</text></g><g><text fill="#2A2A2A" font-family="Arial,Arial_MSFontService,sans-serif" font-weight="400" font-size="41" transform="matrix(1 0 0 1 2082.58 513)">129</text></g><g><text fill="#2A2A2A" font-family="Arial,Arial_MSFontService,sans-serif" font-weight="400" font-size="41" transform="matrix(1 0 0 1 2832.87 620)">125</text></g><g><text fill="#2A2A2A" font-family="Arial,Arial_MSFontService,sans-serif" font-weight="400" font-size="41" transform="matrix(1 0 0 1 2725.69 620)">121</text></g><g><text fill="#2A2A2A" font-family="Arial,Arial_MSFontService,sans-serif" font-weight="400" font-size="41" transform="matrix(1 0 0 1 2618.5 620)">117</text></g><g><text fill="#2A2A2A" font-family="Arial,Arial_MSFontService,sans-serif" font-weight="400" font-size="41" transform="matrix(1 0 0 1 2511.32 620)">113</text></g><g><text fill="#2A2A2A" font-family="Arial,Arial_MSFontService,sans-serif" font-weight="400" font-size="41" transform="matrix(1 0 0 1 2404.13 620)">109</text></g><g><text fill="#2A2A2A" font-family="Arial,Arial_MSFontService,sans-serif" font-weight="400" font-size="41" transform="matrix(1 0 0 1 2296.95 620)">105</text></g><g><text fill="#2A2A2A" font-family="Arial,Arial_MSFontService,sans-serif" font-weight="400" font-size="41" transform="matrix(1 0 0 1 2189.76 620)">101</text></g><text fill="#2A2A2A" font-family="Arial,Arial_MSFontService,sans-serif" font-weight="400" font-size="41" transform="matrix(1 0 0 1 2094.03 620)">97</text><text fill="#2A2A2A" font-family="Arial,Arial_MSFontService,sans-serif" font-weight="400" font-size="41" transform="matrix(1 0 0 1 2844.33 727)">93</text><text fill="#2A2A2A" font-family="Arial,Arial_MSFontService,sans-serif" font-weight="400" font-size="41" transform="matrix(1 0 0 1 2737.15 727)">89</text><text fill="#2A2A2A" font-family="Arial,Arial_MSFontService,sans-serif" font-weight="400" font-size="41" transform="matrix(1 0 0 1 2629.96 727)">85</text><text fill="#2A2A2A" font-family="Arial,Arial_MSFontService,sans-serif" font-weight="400" font-size="41" transform="matrix(1 0 0 1 2522.77 727)">81</text><text fill="#2A2A2A" font-family="Arial,Arial_MSFontService,sans-serif" font-weight="400" font-size="41" transform="matrix(1 0 0 1 2415.59 727)">77</text><text fill="#2A2A2A" font-family="Arial,Arial_MSFontService,sans-serif" font-weight="400" font-size="41" transform="matrix(1 0 0 1 2308.41 727)">73</text><text fill="#2A2A2A" font-family="Arial,Arial_MSFontService,sans-serif" font-weight="400" font-size="41" transform="matrix(1 0 0 1 2201.22 727)">69</text><text fill="#2A2A2A" font-family="Arial,Arial_MSFontService,sans-serif" font-weight="400" font-size="41" transform="matrix(1 0 0 1 2094.03 727)">65</text><text fill="#2A2A2A" font-family="Arial,Arial_MSFontService,sans-serif" font-weight="400" font-size="41" transform="matrix(1 0 0 1 2844.33 835)">61</text><text fill="#2A2A2A" font-family="Arial,Arial_MSFontService,sans-serif" font-weight="400" font-size="41" transform="matrix(1 0 0 1 2737.15 835)">57</text><text fill="#2A2A2A" font-family="Arial,Arial_MSFontService,sans-serif" font-weight="400" font-size="41" transform="matrix(1 0 0 1 2629.96 835)">53</text><text fill="#2A2A2A" font-family="Arial,Arial_MSFontService,sans-serif" font-weight="400" font-size="41" transform="matrix(1 0 0 1 2522.77 835)">49</text><text fill="#2A2A2A" font-family="Arial,Arial_MSFontService,sans-serif" font-weight="400" font-size="41" transform="matrix(1 0 0 1 2415.59 835)">45</text><text fill="#2A2A2A" font-family="Arial,Arial_MSFontService,sans-serif" font-weight="400" font-size="41" transform="matrix(1 0 0 1 2308.41 835)">41</text><text fill="#2A2A2A" font-family="Arial,Arial_MSFontService,sans-serif" font-weight="400" font-size="41" transform="matrix(1 0 0 1 2201.22 835)">37</text><text fill="#2A2A2A" font-family="Arial,Arial_MSFontService,sans-serif" font-weight="400" font-size="41" transform="matrix(1 0 0 1 2094.03 835)">33</text><text fill="#2A2A2A" font-family="Arial,Arial_MSFontService,sans-serif" font-weight="400" font-size="41" transform="matrix(1 0 0 1 2844.33 942)">29</text><text fill="#2A2A2A" font-family="Arial,Arial_MSFontService,sans-serif" font-weight="400" font-size="41" transform="matrix(1 0 0 1 2737.15 942)">25</text><text fill="#2A2A2A" font-family="Arial,Arial_MSFontService,sans-serif" font-weight="400" font-size="41" transform="matrix(1 0 0 1 2629.96 942)">21</text><text fill="#2A2A2A" font-family="Arial,Arial_MSFontService,sans-serif" font-weight="400" font-size="41" transform="matrix(1 0 0 1 2522.77 942)">17</text><text fill="#2A2A2A" font-family="Arial,Arial_MSFontService,sans-serif" font-weight="400" font-size="41" transform="matrix(1 0 0 1 2415.59 942)">13</text><text fill="#2A2A2A" font-family="Arial,Arial_MSFontService,sans-serif" font-weight="400" font-size="41" transform="matrix(1 0 0 1 2319.86 942)">9</text><text fill="#2A2A2A" font-family="Arial,Arial_MSFontService,sans-serif" font-weight="400" font-size="41" transform="matrix(1 0 0 1 2212.68 942)">5</text><text fill="#2A2A2A" font-family="Arial,Arial_MSFontService,sans-serif" font-weight="400" font-size="41" transform="matrix(1 0 0 1 2105.49 942)">1</text></g></svg>